Coordinates
version=1
nRows=21
nColumns=12
inDegrees=yes

Units are S.I. units (second, meters, Newtons, ...)
Angles are in degrees

endheader
time	SC_y	SC_z	SC_x	AC_y	AC_z	AC_x	GH_y	GH_z	GH_yy	EL_x	PS_y
       0.0              -20.74          19.27          74.64           49.1         -8.279          17.73         -41.89          21.23         -56.87          15.74          152.2
    0.0387              -20.74          19.27          74.63           49.1          -8.28          17.73         -41.86          21.23         -56.88          15.74          152.2
    0.0774              -20.74          19.27          74.62           49.1         -8.281          17.73         -41.84          21.22         -56.88          15.75          152.2
    0.1161              -20.74          19.27          74.61           49.1         -8.282          17.72         -41.81          21.22         -56.88          15.75          152.1
    0.1548              -20.74          19.26           74.6           49.1         -8.283          17.72         -41.78          21.22         -56.88          15.75          152.1
    0.1935              -20.74          19.26          74.59           49.1         -8.285          17.72         -41.75          21.22         -56.88          15.75          152.1
    0.2322              -20.74          19.26          74.57          49.11         -8.286          17.71         -41.71          21.21         -56.89          15.76          152.1
    0.2709              -20.75          19.25          74.56          49.11         -8.287          17.71         -41.68          21.21         -56.89          15.76          152.0
    0.3096              -20.75          19.25          74.54          49.11         -8.289           17.7         -41.64          21.21         -56.89          15.76          152.0
    0.3483              -20.75          19.25          74.53          49.11          -8.29           17.7          -41.6           21.2          -56.9          15.77          152.0
     0.387              -20.75          19.24          74.51          49.11         -8.292          17.69         -41.55           21.2          -56.9          15.77          152.0
    0.4257              -20.75          19.24          74.49          49.12         -8.294          17.69         -41.51          21.19          -56.9          15.78          151.9
    0.4644              -20.75          19.24          74.47          49.12         -8.296          17.68         -41.46          21.19         -56.91          15.78          151.9
    0.5031              -20.76          19.23          74.45          49.12         -8.298          17.67          -41.4          21.19         -56.91          15.79          151.8
    0.5418              -20.76          19.22          74.42          49.13         -8.301          17.67         -41.34          21.18         -56.91          15.79          151.8
    0.5805              -20.76          19.22           74.4          49.13         -8.303          17.66         -41.28          21.17         -56.92           15.8          151.7
    0.6192              -20.76          19.21          74.37          49.13         -8.306          17.65         -41.21          21.17         -56.92           15.8          151.7
    0.6579              -20.77          19.21          74.34          49.14         -8.309          17.64         -41.13          21.16         -56.93          15.81          151.6
    0.6966              -20.77           19.2           74.3          49.14         -8.312          17.63         -41.05          21.15         -56.94          15.82          151.6
    0.7353              -20.77          19.19          74.27          49.15         -8.316          17.62         -40.95          21.14         -56.94          15.83          151.5
     0.774              -20.78          19.18          74.23          49.15          -8.32          17.61         -40.85          21.14         -56.95          15.84          151.4
